<svg xmlns="http://www.w3.org/2000/svg" width="1900" height="900" viewBox="0 0 1900 900">
<defs>
  <marker id="arr-r" markerWidth="8" markerHeight="8" refX="7" refY="4" orient="auto"><path d="M0 0 L8 4 L0 8 Z" fill="#e87668"/></marker>
  <marker id="arr-t" markerWidth="8" markerHeight="8" refX="7" refY="4" orient="auto"><path d="M0 0 L8 4 L0 8 Z" fill="#39a99f"/></marker>
  <marker id="arr-f" markerWidth="8" markerHeight="8" refX="7" refY="4" orient="auto"><path d="M0 0 L8 4 L0 8 Z" fill="#4d8ed1"/></marker>
  <marker id="arr-c" markerWidth="8" markerHeight="8" refX="7" refY="4" orient="auto"><path d="M0 0 L8 4 L0 8 Z" fill="#8d6ac2"/></marker>
  <marker id="arr-g" markerWidth="8" markerHeight="8" refX="7" refY="4" orient="auto"><path d="M0 0 L8 4 L0 8 Z" fill="#687586"/></marker>
  <pattern id="grid" width="12" height="12" patternUnits="userSpaceOnUse"><path d="M12 0H0V12" fill="none" stroke="#bfd2e5" stroke-width="1"/></pattern>
</defs>
<rect width="100%" height="100%" fill="white"/>
<text x="950" y="54" text-anchor="middle" font-family="Arial,Helvetica,sans-serif" font-size="31" font-weight="700" fill="#253244">Reliability-Guided RGBT Video Tiny Object Detector</text><rect x="40" y="153" width="142" height="114" rx="4" fill="#fff7f5" stroke="#e87668" stroke-width="1.8"/><rect x="40" y="370" width="142" height="114" rx="4" fill="#f3fbfa" stroke="#39a99f" stroke-width="1.8"/><rect x="50" y="164" width="122" height="94" fill="#e87668" fill-opacity=".11"/><path d="M50 226 L90 212 L130 219 L172 199" fill="none" stroke="#e87668" stroke-width="5" opacity=".7"/><rect x="106" y="207" width="12" height="12" fill="none" stroke="#e87668" stroke-width="3"/><rect x="141" y="197" width="8" height="8" fill="none" stroke="#e87668" stroke-width="3"/><rect x="50" y="381" width="122" height="94" fill="#39a99f" fill-opacity=".11"/><path d="M50 443 L90 429 L130 436 L172 416" fill="none" stroke="#39a99f" stroke-width="5" opacity=".7"/><rect x="106" y="424" width="12" height="12" fill="none" stroke="#39a99f" stroke-width="3"/><rect x="141" y="414" width="8" height="8" fill="none" stroke="#39a99f" stroke-width="3"/><text x="111" y="144" text-anchor="middle" font-family="Arial,Helvetica,sans-serif" font-size="21" font-weight="700" fill="#253244">RGB_t</text><text x="111" y="361" text-anchor="middle" font-family="Arial,Helvetica,sans-serif" font-size="21" font-weight="700" fill="#253244">Thermal_t</text><rect x="224" y="174" width="128" height="72" rx="9" fill="#fff0ed" stroke="#e87668" stroke-width="1.6"/><text x="288.0" y="216.0" text-anchor="middle" font-family="Arial,Helvetica,sans-serif" font-size="17" font-weight="600" fill="#253244">RGB Encoder</text><rect x="224" y="391" width="128" height="72" rx="9" fill="#edf9f8" stroke="#39a99f" stroke-width="1.6"/><text x="288.0" y="433.0" text-anchor="middle" font-family="Arial,Helvetica,sans-serif" font-size="17" font-weight="600" fill="#253244">T Encoder</text><polyline points="182,210 224,210" fill="none" stroke="#e87668" stroke-width="3" stroke-linecap="round" stroke-linejoin="round" marker-end="url(#arr-r)"/><polygon points="224,210 214.0,214.5 214.0,205.5" fill="#e87668"/><polyline points="182,427 224,427" fill="none" stroke="#39a99f" stroke-width="3" stroke-linecap="round" stroke-linejoin="round" marker-end="url(#arr-t)"/><polygon points="224,427 214.0,431.5 214.0,422.5" fill="#39a99f"/><polygon points="406,164 471,164 471,239 406,239" fill="#e87668" fill-opacity="0.09000000000000001" stroke="#e87668" stroke-width="1.6"/><polygon points="398,172 463,172 463,247 398,247" fill="#e87668" fill-opacity="0.13999999999999999" stroke="#e87668" stroke-width="1.6"/><polygon points="390,180 455,180 455,255 390,255" fill="#e87668" fill-opacity="0.2" stroke="#e87668" stroke-width="1.6"/><text x="430.5" y="281" text-anchor="middle" font-family="Arial,Helvetica,sans-serif" font-size="17" font-weight="600" fill="#253244">P2 P3 P4</text><polygon points="406,381 471,381 471,456 406,456" fill="#39a99f" fill-opacity="0.09000000000000001" stroke="#39a99f" stroke-width="1.6"/><polygon points="398,389 463,389 463,464 398,464" fill="#39a99f" fill-opacity="0.13999999999999999" stroke="#39a99f" stroke-width="1.6"/><polygon points="390,397 455,397 455,472 390,472" fill="#39a99f" fill-opacity="0.2" stroke="#39a99f" stroke-width="1.6"/><text x="430.5" y="498" text-anchor="middle" font-family="Arial,Helvetica,sans-serif" font-size="17" font-weight="600" fill="#253244">P2 P3 P4</text><polyline points="352,210 390,210" fill="none" stroke="#e87668" stroke-width="3" stroke-linecap="round" stroke-linejoin="round" marker-end="url(#arr-r)"/><polygon points="390,210 380.0,214.5 380.0,205.5" fill="#e87668"/><polyline points="352,427 390,427" fill="none" stroke="#39a99f" stroke-width="3" stroke-linecap="round" stroke-linejoin="round" marker-end="url(#arr-t)"/><polygon points="390,427 380.0,431.5 380.0,422.5" fill="#39a99f"/><rect x="500" y="291" width="136" height="88" rx="10" fill="#f7f8fb" stroke="#687586" stroke-width="2"/><text x="568" y="319" text-anchor="middle" font-family="Arial,Helvetica,sans-serif" font-size="18" font-weight="700" fill="#253244">Dual Seeds</text><circle cx="540" cy="347" r="7" fill="#e87668"/><circle cx="584" cy="347" r="7" fill="#39a99f"/><polyline points="455,219 480,219 480,320 500,320" fill="none" stroke="#e87668" stroke-width="3" stroke-linecap="round" stroke-linejoin="round" marker-end="url(#arr-r)"/><polygon points="500,320 490.0,324.5 490.0,315.5" fill="#e87668"/><polyline points="455,436 480,436 480,355 500,355" fill="none" stroke="#39a99f" stroke-width="3" stroke-linecap="round" stroke-linejoin="round" marker-end="url(#arr-t)"/><polygon points="500,355 490.0,359.5 490.0,350.5" fill="#39a99f"/><rect x="680" y="144" width="348" height="370" rx="17" fill="#f8f5fd" stroke="#8d6ac2" stroke-width="2" stroke-dasharray="9 6"/><text x="854" y="177" text-anchor="middle" font-family="Arial,Helvetica,sans-serif" font-size="24" font-weight="700" fill="#8d6ac2">OCR</text><rect x="714" y="220" width="88" height="55" rx="9" fill="white" stroke="#8d6ac2" stroke-width="1.6"/><text x="758.0" y="253.5" text-anchor="middle" font-family="Arial,Helvetica,sans-serif" font-size="17" font-weight="600" fill="#253244">FoV</text><rect x="822" y="220" width="88" height="55" rx="9" fill="white" stroke="#8d6ac2" stroke-width="1.6"/><text x="866.0" y="253.5" text-anchor="middle" font-family="Arial,Helvetica,sans-serif" font-size="17" font-weight="600" fill="#253244">Search</text><rect x="930" y="220" width="70" height="55" rx="9" fill="white" stroke="#8d6ac2" stroke-width="1.6"/><text x="965.0" y="253.5" text-anchor="middle" font-family="Arial,Helvetica,sans-serif" font-size="17" font-weight="600" fill="#253244">Corr.</text><polyline points="802,248 822,248" fill="none" stroke="#8d6ac2" stroke-width="2.4" stroke-linecap="round" stroke-linejoin="round" marker-end="url(#arr-c)"/><polygon points="822,248 812.0,252.5 812.0,243.5" fill="#8d6ac2"/><polyline points="910,248 930,248" fill="none" stroke="#8d6ac2" stroke-width="2.4" stroke-linecap="round" stroke-linejoin="round" marker-end="url(#arr-c)"/><polygon points="930,248 920.0,252.5 920.0,243.5" fill="#8d6ac2"/><rect x="741" y="303" width="118" height="95" fill="url(#grid)" stroke="#b6cce4" stroke-width="1.5"/><circle cx="778" cy="340" r="6" fill="#e87668"/><circle cx="826" cy="364" r="6" fill="#39a99f"/><circle cx="788" cy="375" r="6" fill="#39a99f"/><rect x="889" y="314" width="111" height="57" rx="9" fill="#f0e9fa" stroke="#8d6ac2" stroke-width="1.6"/><text x="944.5" y="348.5" text-anchor="middle" font-family="Arial,Helvetica,sans-serif" font-size="17" font-weight="600" fill="#253244">r / valid</text><text x="800" y="428" text-anchor="middle" font-family="Arial,Helvetica,sans-serif" font-size="16" font-weight="500" fill="#253244">Local candidates</text><text x="944" y="418" text-anchor="middle" font-family="Arial,Helvetica,sans-serif" font-size="16" font-weight="500" fill="#253244">Reliability</text><polyline points="455,202 662,202 662,235 680,235" fill="none" stroke="#e87668" stroke-width="3" stroke-linecap="round" stroke-linejoin="round" marker-end="url(#arr-r)"/><polygon points="680,235 670.0,239.5 670.0,230.5" fill="#e87668"/><polyline points="455,419 665,419 665,360 680,360" fill="none" stroke="#39a99f" stroke-width="3" stroke-linecap="round" stroke-linejoin="round" marker-end="url(#arr-t)"/><polygon points="680,360 670.0,364.5 670.0,355.5" fill="#39a99f"/><polyline points="636,335 680,335" fill="none" stroke="#687586" stroke-width="3" stroke-linecap="round" stroke-linejoin="round" marker-end="url(#arr-g)"/><polygon points="680,335 670.0,339.5 670.0,330.5" fill="#687586"/><polygon points="1078,307 1126,307 1126,371 1078,371" fill="#39a99f" fill-opacity="0.09000000000000001" stroke="#39a99f" stroke-width="1.6"/><polygon points="1070,315 1118,315 1118,379 1070,379" fill="#39a99f" fill-opacity="0.13999999999999999" stroke="#39a99f" stroke-width="1.6"/><polygon points="1062,323 1110,323 1110,387 1062,387" fill="#39a99f" fill-opacity="0.2" stroke="#39a99f" stroke-width="1.6"/><text x="1094.0" y="413" text-anchor="middle" font-family="Arial,Helvetica,sans-serif" font-size="17" font-weight="600" fill="#253244">T candidates</text><polyline points="1028,350 1062,350" fill="none" stroke="#39a99f" stroke-width="3" stroke-linecap="round" stroke-linejoin="round" marker-end="url(#arr-t)"/><polygon points="1062,350 1052.0,354.5 1052.0,345.5" fill="#39a99f"/><rect x="1180" y="122" width="337" height="392" rx="17" fill="#f2f8fd" stroke="#4d8ed1" stroke-width="2" stroke-dasharray="9 6"/><text x="1349" y="157" text-anchor="middle" font-family="Arial,Helvetica,sans-serif" font-size="24" font-weight="700" fill="#4d8ed1">TPSI</text><polygon points="1231,188 1288,188 1288,264 1231,264" fill="#e87668" fill-opacity="0.09000000000000001" stroke="#e87668" stroke-width="1.6"/><polygon points="1223,196 1280,196 1280,272 1223,272" fill="#e87668" fill-opacity="0.13999999999999999" stroke="#e87668" stroke-width="1.6"/><polygon points="1215,204 1272,204 1272,280 1215,280" fill="#e87668" fill-opacity="0.2" stroke="#e87668" stroke-width="1.6"/><text x="1251.5" y="306" text-anchor="middle" font-family="Arial,Helvetica,sans-serif" font-size="17" font-weight="600" fill="#253244">Q full</text><polygon points="1324,188 1369,188 1369,252 1324,252" fill="#39a99f" fill-opacity="0.09000000000000001" stroke="#39a99f" stroke-width="1.6"/><polygon points="1316,196 1361,196 1361,260 1316,260" fill="#39a99f" fill-opacity="0.13999999999999999" stroke="#39a99f" stroke-width="1.6"/><polygon points="1308,204 1353,204 1353,268 1308,268" fill="#39a99f" fill-opacity="0.2" stroke="#39a99f" stroke-width="1.6"/><text x="1338.5" y="294" text-anchor="middle" font-family="Arial,Helvetica,sans-serif" font-size="17" font-weight="600" fill="#253244">K,V sparse</text><rect x="1390" y="222" width="101" height="63" rx="9" fill="white" stroke="#4d8ed1" stroke-width="1.6"/><text x="1440.5" y="259.5" text-anchor="middle" font-family="Arial,Helvetica,sans-serif" font-size="17" font-weight="600" fill="#253244">Cross-Attn</text><polyline points="1272,238 1390,238" fill="none" stroke="#e87668" stroke-width="3" stroke-linecap="round" stroke-linejoin="round" marker-end="url(#arr-r)"/><polygon points="1390,238 1380.0,242.5 1380.0,233.5" fill="#e87668"/><polyline points="1353,238 1390,263" fill="none" stroke="#39a99f" stroke-width="3" stroke-linecap="round" stroke-linejoin="round" marker-end="url(#arr-t)"/><polygon points="1390,263 1379.2,261.1 1384.2,253.7" fill="#39a99f"/><rect x="1405" y="320" width="67" height="48" fill="url(#grid)" stroke="#9ac1e5" stroke-width="1.5"/><polyline points="1440,285 1440,320" fill="none" stroke="#4d8ed1" stroke-width="3" stroke-linecap="round" stroke-linejoin="round" marker-end="url(#arr-f)"/><polygon points="1440,320 1435.5,310.0 1444.5,310.0" fill="#4d8ed1"/><polyline points="1440,368 1440,414" fill="none" stroke="#4d8ed1" stroke-width="3" stroke-linecap="round" stroke-linejoin="round" marker-end="url(#arr-f)"/><polygon points="1440,414 1435.5,404.0 1444.5,404.0" fill="#4d8ed1"/><circle cx="1440" cy="442" r="21" fill="white" stroke="#4d8ed1" stroke-width="2.3"/><text x="1440" y="450" text-anchor="middle" font-family="Arial,Helvetica,sans-serif" font-size="27" font-weight="600" fill="#4d8ed1">+</text><polygon points="1488,388 1517,388 1517,453 1488,453" fill="#4d8ed1" fill-opacity="0.09000000000000001" stroke="#4d8ed1" stroke-width="1.6"/><polygon points="1480,396 1509,396 1509,461 1480,461" fill="#4d8ed1" fill-opacity="0.13999999999999999" stroke="#4d8ed1" stroke-width="1.6"/><polygon points="1472,404 1501,404 1501,469 1472,469" fill="#4d8ed1" fill-opacity="0.2" stroke="#4d8ed1" stroke-width="1.6"/><text x="1488" y="491" text-anchor="middle" font-family="Arial,Helvetica,sans-serif" font-size="19" font-weight="700" fill="#253244">F_t</text><polyline points="455,187 468,187 468,110 1147,110 1147,238 1215,238" fill="none" stroke="#e87668" stroke-width="3" stroke-linecap="round" stroke-linejoin="round" marker-end="url(#arr-r)"/><polygon points="1215,238 1205.0,242.5 1205.0,233.5" fill="#e87668"/><polyline points="1110,353 1142,353 1142,261 1308,261" fill="none" stroke="#39a99f" stroke-width="3" stroke-linecap="round" stroke-linejoin="round" marker-end="url(#arr-t)"/><polygon points="1308,261 1298.0,265.5 1298.0,256.5" fill="#39a99f"/><polyline points="1028,385 1161,385 1161,314 1320,314" fill="none" stroke="#8d6ac2" stroke-width="2.2" stroke-linecap="round" stroke-linejoin="round" stroke-dasharray="8 6" marker-end="url(#arr-c)"/><polygon points="1320,314 1310.0,318.5 1310.0,309.5" fill="#8d6ac2"/><text x="1245" y="336" text-anchor="middle" font-family="Arial,Helvetica,sans-serif" font-size="15" font-weight="500" fill="#8d6ac2">budget / gate</text><polyline points="1215,281 1215,442 1419,442" fill="none" stroke="#e87668" stroke-width="2.4" stroke-linecap="round" stroke-linejoin="round" marker-end="url(#arr-r)"/><polygon points="1419,442 1409.0,446.5 1409.0,437.5" fill="#e87668"/><rect x="991" y="635" width="158" height="84" rx="10" fill="#f4f6f8" stroke="#687586" stroke-width="1.6"/><polygon points="1025,639 1063,639 1063,678 1025,678" fill="#687586" fill-opacity="0.09000000000000001" stroke="#687586" stroke-width="1.6"/><polygon points="1017,647 1055,647 1055,686 1017,686" fill="#687586" fill-opacity="0.13999999999999999" stroke="#687586" stroke-width="1.6"/><polygon points="1009,655 1047,655 1047,694 1009,694" fill="#687586" fill-opacity="0.2" stroke="#687586" stroke-width="1.6"/><text x="1100" y="674" text-anchor="middle" font-family="Arial,Helvetica,sans-serif" font-size="18" font-weight="700" fill="#253244">M past</text><text x="1100" y="700" text-anchor="middle" font-family="Arial,Helvetica,sans-serif" font-size="15" font-weight="500" fill="#253244">t−1 … t−k</text><rect x="1182" y="600" width="337" height="142" rx="17" fill="#fff7f0" stroke="#e6a875" stroke-width="2" stroke-dasharray="9 6"/><text x="1348" y="629" text-anchor="middle" font-family="Arial,Helvetica,sans-serif" font-size="23" font-weight="700" fill="#b87545">RGCM</text><rect x="1210" y="656" width="75" height="48" rx="9" fill="white" stroke="#d39d70" stroke-width="1.6"/><text x="1247.5" y="686.0" text-anchor="middle" font-family="Arial,Helvetica,sans-serif" font-size="17" font-weight="600" fill="#253244">Match</text><rect x="1303" y="656" width="75" height="48" rx="9" fill="white" stroke="#d39d70" stroke-width="1.6"/><text x="1340.5" y="686.0" text-anchor="middle" font-family="Arial,Helvetica,sans-serif" font-size="17" font-weight="600" fill="#253244">Gate</text><circle cx="1425" cy="680" r="21" fill="white" stroke="#4d8ed1" stroke-width="2.3"/><text x="1425" y="688" text-anchor="middle" font-family="Arial,Helvetica,sans-serif" font-size="27" font-weight="600" fill="#4d8ed1">+</text><text x="1492" y="686" text-anchor="middle" font-family="Arial,Helvetica,sans-serif" font-size="20" font-weight="700" fill="#4d8ed1">F_t*</text><polyline points="1149,676 1210,676" fill="none" stroke="#687586" stroke-width="3" stroke-linecap="round" stroke-linejoin="round" marker-end="url(#arr-g)"/><polygon points="1210,676 1200.0,680.5 1200.0,671.5" fill="#687586"/><polyline points="1285,680 1303,680" fill="none" stroke="#687586" stroke-width="3" stroke-linecap="round" stroke-linejoin="round" marker-end="url(#arr-g)"/><polygon points="1303,680 1293.0,684.5 1293.0,675.5" fill="#687586"/><polyline points="1378,680 1404,680" fill="none" stroke="#687586" stroke-width="3" stroke-linecap="round" stroke-linejoin="round" marker-end="url(#arr-g)"/><polygon points="1404,680 1394.0,684.5 1394.0,675.5" fill="#687586"/><polyline points="1446,680 1470,680" fill="none" stroke="#4d8ed1" stroke-width="3" stroke-linecap="round" stroke-linejoin="round" marker-end="url(#arr-f)"/><polygon points="1470,680 1460.0,684.5 1460.0,675.5" fill="#4d8ed1"/><polyline points="1501,454 1540,454 1540,562 1167,562 1167,645 1210,645" fill="none" stroke="#4d8ed1" stroke-width="3" stroke-linecap="round" stroke-linejoin="round" marker-end="url(#arr-f)"/><polygon points="1210,645 1200.0,649.5 1200.0,640.5" fill="#4d8ed1"/><polyline points="1501,454 1560,454 1560,755 1425,755 1425,701" fill="none" stroke="#4d8ed1" stroke-width="2.6" stroke-linecap="round" stroke-linejoin="round" marker-end="url(#arr-f)"/><polygon points="1425,701 1429.5,711.0 1420.5,711.0" fill="#4d8ed1"/><polyline points="1028,466 1150,466 1150,578 1340,578 1340,656" fill="none" stroke="#8d6ac2" stroke-width="2.2" stroke-linecap="round" stroke-linejoin="round" stroke-dasharray="8 6" marker-end="url(#arr-c)"/><polygon points="1340,656 1335.5,646.0 1344.5,646.0" fill="#8d6ac2"/><text x="1250" y="572" text-anchor="middle" font-family="Arial,Helvetica,sans-serif" font-size="15" font-weight="500" fill="#8d6ac2">r / valid</text><rect x="1575" y="639" width="143" height="82" rx="9" fill="#f4f8fc" stroke="#4d8ed1" stroke-width="1.6"/><text x="1646.5" y="686.0" text-anchor="middle" font-family="Arial,Helvetica,sans-serif" font-size="17" font-weight="600" fill="#253244">Detection Head</text><polyline points="1510,680 1575,680" fill="none" stroke="#4d8ed1" stroke-width="3" stroke-linecap="round" stroke-linejoin="round" marker-end="url(#arr-f)"/><polygon points="1575,680 1565.0,684.5 1565.0,675.5" fill="#4d8ed1"/><polyline points="455,170 455,83 1646,83 1646,639" fill="none" stroke="#e87668" stroke-width="2.2" stroke-linecap="round" stroke-linejoin="round" marker-end="url(#arr-r)"/><polygon points="1646,639 1641.5,629.0 1650.5,629.0" fill="#e87668"/><text x="895" y="79" text-anchor="middle" font-family="Arial,Helvetica,sans-serif" font-size="15" font-weight="500" fill="#e87668">P3/P4 context</text><rect x="1762" y="621" width="103" height="119" rx="4" fill="#fff7f5" stroke="#e87668" stroke-width="1.5"/><rect x="1778" y="668" width="20" height="21" fill="none" stroke="#e87668" stroke-width="2.5"/><rect x="1813" y="647" width="13" height="17" fill="none" stroke="#e87668" stroke-width="2.5"/><rect x="1833" y="682" width="17" height="16" fill="none" stroke="#e87668" stroke-width="2.5"/><text x="1813" y="609" text-anchor="middle" font-family="Arial,Helvetica,sans-serif" font-size="19" font-weight="700" fill="#253244">Boxes_t</text><text x="1813" y="763" text-anchor="middle" font-family="Arial,Helvetica,sans-serif" font-size="14" font-weight="500" fill="#253244">RGB coords</text><polyline points="1718,680 1762,680" fill="none" stroke="#4d8ed1" stroke-width="3" stroke-linecap="round" stroke-linejoin="round" marker-end="url(#arr-f)"/><polygon points="1762,680 1752.0,684.5 1752.0,675.5" fill="#4d8ed1"/><rect x="1583" y="769" width="123" height="42" rx="9" fill="#f6f7f8" stroke="#687586" stroke-width="1.6"/><text x="1644.5" y="796.0" text-anchor="middle" font-family="Arial,Helvetica,sans-serif" font-size="17" font-weight="600" fill="#253244">Update M</text><polyline points="1646,721 1646,769" fill="none" stroke="#687586" stroke-width="2.2" stroke-linecap="round" stroke-linejoin="round" marker-end="url(#arr-g)"/><polygon points="1646,769 1641.5,759.0 1650.5,759.0" fill="#687586"/><polyline points="1583,790 1122,790 1122,719" fill="none" stroke="#687586" stroke-width="2.2" stroke-linecap="round" stroke-linejoin="round" marker-end="url(#arr-g)"/><polygon points="1122,719 1126.5,729.0 1117.5,729.0" fill="#687586"/><rect x="41" y="826" width="1824" height="55" rx="10" fill="#fbfcfd" stroke="#cbd3dd" stroke-width="1.5"/><text x="104" y="860" text-anchor="middle" font-family="Arial,Helvetica,sans-serif" font-size="17" font-weight="700" fill="#253244">LEGEND</text><polyline points="190,854 240,854" fill="none" stroke="#e87668" stroke-width="3" stroke-linecap="round" stroke-linejoin="round" marker-end="url(#arr-r)"/><polygon points="240,854 230.0,858.5 230.0,849.5" fill="#e87668"/><text x="280" y="860" text-anchor="middle" font-family="Arial,Helvetica,sans-serif" font-size="16" font-weight="500" fill="#253244">RGB</text><polyline points="338,854 388,854" fill="none" stroke="#39a99f" stroke-width="3" stroke-linecap="round" stroke-linejoin="round" marker-end="url(#arr-t)"/><polygon points="388,854 378.0,858.5 378.0,849.5" fill="#39a99f"/><text x="435" y="860" text-anchor="middle" font-family="Arial,Helvetica,sans-serif" font-size="16" font-weight="500" fill="#253244">Thermal</text><polyline points="508,854 558,854" fill="none" stroke="#4d8ed1" stroke-width="3" stroke-linecap="round" stroke-linejoin="round" marker-end="url(#arr-f)"/><polygon points="558,854 548.0,858.5 548.0,849.5" fill="#4d8ed1"/><text x="600" y="860" text-anchor="middle" font-family="Arial,Helvetica,sans-serif" font-size="16" font-weight="500" fill="#253244">Fused</text><circle cx="707" cy="854" r="14" fill="white" stroke="#253244" stroke-width="2.3"/><text x="707" y="862" text-anchor="middle" font-family="Arial,Helvetica,sans-serif" font-size="27" font-weight="600" fill="#253244">+</text><text x="762" y="860" text-anchor="middle" font-family="Arial,Helvetica,sans-serif" font-size="16" font-weight="500" fill="#253244">Add</text><circle cx="852" cy="854" r="14" fill="white" stroke="#253244" stroke-width="2.3"/><text x="852" y="862" text-anchor="middle" font-family="Arial,Helvetica,sans-serif" font-size="27" font-weight="600" fill="#253244">×</text><text x="907" y="860" text-anchor="middle" font-family="Arial,Helvetica,sans-serif" font-size="16" font-weight="500" fill="#253244">Gate</text><circle cx="1001" cy="854" r="14" fill="white" stroke="#253244" stroke-width="2.3"/><text x="1001" y="862" text-anchor="middle" font-family="Arial,Helvetica,sans-serif" font-size="27" font-weight="600" fill="#253244">C</text><text x="1063" y="860" text-anchor="middle" font-family="Arial,Helvetica,sans-serif" font-size="16" font-weight="500" fill="#253244">Concat</text><polyline points="1150,854 1198,854" fill="none" stroke="#8d6ac2" stroke-width="2" stroke-linecap="round" stroke-linejoin="round" stroke-dasharray="8 6" marker-end="url(#arr-c)"/><polygon points="1198,854 1188.0,858.5 1188.0,849.5" fill="#8d6ac2"/><text x="1258" y="860" text-anchor="middle" font-family="Arial,Helvetica,sans-serif" font-size="16" font-weight="500" fill="#253244">Control</text><polygon points="1397,826 1425,826 1425,852 1397,852" fill="#687586" fill-opacity="0.09000000000000001" stroke="#687586" stroke-width="1.6"/><polygon points="1389,834 1417,834 1417,860 1389,860" fill="#687586" fill-opacity="0.13999999999999999" stroke="#687586" stroke-width="1.6"/><polygon points="1381,842 1409,842 1409,868 1381,868" fill="#687586" fill-opacity="0.2" stroke="#687586" stroke-width="1.6"/><text x="1478" y="860" text-anchor="middle" font-family="Arial,Helvetica,sans-serif" font-size="16" font-weight="500" fill="#253244">Feature map</text><text x="1703" y="860" text-anchor="middle" font-family="Arial,Helvetica,sans-serif" font-size="15" font-weight="500" fill="#687586">Past frames only</text></svg>